# xmcd
#
# Track frame offsets:
#	150
#	9607
#	29802
#	43120
#	72610
#	94002
#	114777
#	127545
#	144422
#	172285
#	189015
#	210587
#	237450
#	250820
#	273402
#	306310
#	321562
#
# Disc length: 4523 seconds
#
# Revision: 1
# Processed by: cddbd v1.5.2PL0 Copyright (c) Steve Scherf et al.
# Submitted via: audiograbber 1.83.01
#
DISCID=f711a911
DTITLE=Alexis Korner - On The Move
DYEAR=1996
DGENRE=Blues
TTITLE0=Hey! Good Lookin'
TTITLE1=Rosie
TTITLE2=Blood On The Saddle
TTITLE3=Fly United
TTITLE4=Steal Away
TTITLE5=Bluebirds Fresh Daily
TTITLE6=The Thief
TTITLE7=Working In A Coalmine
TTITLE8=Rock Me
TTITLE9=Honky Tonk Woman
TTITLE10=I Don't Know
TTITLE11=Little Bitty Gal Blues
TTITLE12=Engine 143
TTITLE13=Louisiana Blues
TTITLE14=You Got The Power (To Turn Me On)
TTITLE15=Vicksburg Blues
TTITLE16=Big Boss Man
EXTD=
EXTT0=
EXTT1=
EXTT2=
EXTT3=
EXTT4=
EXTT5=
EXTT6=
EXTT7=
EXTT8=
EXTT9=
EXTT10=
EXTT11=
EXTT12=
EXTT13=
EXTT14=
EXTT15=
EXTT16=
PLAYORDER=
